<svg xmlns="" width="410" height="404" viewBox="0 0 410 404">
  <defs>
    <linearGradient id="a" x1="50%" x2="50%" y1="0%" y2="100%">
      <stop offset="0%" stop-color="#41D1FF" />
      <stop offset="100%" stop-color="#BD34FE" />
    </linearGradient>
    <linearGradient id="b" x1="50%" x2="50%" y1="0%" y2="100%">
      <stop offset="0%" stop-color="#FFEA83" />
      <stop offset="8.333%" stop-color="#FFDD35" />
      <stop offset="100%" stop-color="#FFA800" />
    </linearGradient>
  </defs>
  <g fill="none">
    <path fill="url(#a)" d="M399.641 59.525 216.643 388.545c-5.943 10.403-20.865 10.75-27.33.668L9.872 59.525c-6.795-10.632 1.276-24.31 13.665-22.272l180.245 30.364a16 16 0 0 0 5.352-.004l176.5-30.352c12.372-2.129 20.45 11.589 13.654 22.221Z" />
    <path fill="url(#b)" d="m292.965 1.676-68.684 14.528a8 8 0 0 0-6.312 6.616l-12.126 86.783a8 8 0 0 0 9.737 8.874l37.397-7.486c6.59-1.319 12.557 4.262 11.444 10.934l-11.164 66.812c-1.32 7.901 8.509 12.316 13.13 5.63l1.093-1.57 69.276-142.021c3.184-6.531-2.63-13.829-9.727-12.306l-38.958 8.273c-6.66 1.414-12.56-4.38-11.38-11.067l7.377-41.293c1.23-6.889-4.766-12.6-11.438-11.168Z" />
  </g>
</svg>
